<mxfile host="app.diagrams.net" modified="2022-06-04T20:05:07.033Z" agent="5.0 (Windows NT 10.0; Win64; x64) AppleWebKit/537.36 (KHTML, like Gecko) Chrome/102.0.5005.63 Safari/537.36" etag="35cGHWzT48Vx99KEgCFC" version="18.2.1" type="github" pages="2">
  <diagram id="1epVyEjdJScuvTORiYmE" name="Республиканские">
    <mxGraphModel dx="1038" dy="1708" grid="1" gridSize="10" guides="1" tooltips="1" connect="1" arrows="1" fold="1" page="1" pageScale="1" pageWidth="827" pageHeight="1169" math="0" shadow="0">
      <root>
        <mxCell id="0" />
        <mxCell id="1" parent="0" />
        <mxCell id="0UEoLD_UqMc9a8rCgnll-24" value="&lt;span style=&quot;&quot;&gt;&lt;br&gt;&lt;/span&gt;" style="rounded=0;whiteSpace=wrap;html=1;" parent="1" vertex="1">
          <mxGeometry x="230" y="340" width="490" height="180" as="geometry" />
        </mxCell>
        <mxCell id="kI0TXd6lDpyNc3GqcL8A-2" value="&lt;span style=&quot;&quot;&gt;выполнение разрядного норматива соревнования&lt;/span&gt;" style="rounded=0;whiteSpace=wrap;html=1;" parent="1" vertex="1">
          <mxGeometry x="200" y="-30" width="120" height="60" as="geometry" />
        </mxCell>
        <mxCell id="0UEoLD_UqMc9a8rCgnll-3" value="да" style="edgeStyle=orthogonalEdgeStyle;rounded=0;orthogonalLoop=1;jettySize=auto;html=1;entryX=0.5;entryY=0;entryDx=0;entryDy=0;" parent="1" source="0UEoLD_UqMc9a8rCgnll-1" target="0UEoLD_UqMc9a8rCgnll-31" edge="1">
          <mxGeometry x="-0.4819" y="10" relative="1" as="geometry">
            <mxPoint x="90" y="290" as="targetPoint" />
            <mxPoint as="offset" />
          </mxGeometry>
        </mxCell>
        <mxCell id="0UEoLD_UqMc9a8rCgnll-5" style="edgeStyle=orthogonalEdgeStyle;rounded=0;orthogonalLoop=1;jettySize=auto;html=1;entryX=0;entryY=0.5;entryDx=0;entryDy=0;" parent="1" source="0UEoLD_UqMc9a8rCgnll-1" target="0UEoLD_UqMc9a8rCgnll-4" edge="1">
          <mxGeometry relative="1" as="geometry" />
        </mxCell>
        <mxCell id="0UEoLD_UqMc9a8rCgnll-6" value="нет" style="edgeLabel;html=1;align=center;verticalAlign=middle;resizable=0;points=[];" parent="0UEoLD_UqMc9a8rCgnll-5" vertex="1" connectable="0">
          <mxGeometry x="-0.3619" y="-1" relative="1" as="geometry">
            <mxPoint x="-4" y="-11" as="offset" />
          </mxGeometry>
        </mxCell>
        <mxCell id="0UEoLD_UqMc9a8rCgnll-1" value="выполнен разрядный норматив соревнования?" style="rhombus;whiteSpace=wrap;html=1;" parent="1" vertex="1">
          <mxGeometry x="30" y="160" width="120" height="80" as="geometry" />
        </mxCell>
        <mxCell id="0UEoLD_UqMc9a8rCgnll-4" value="Очки не начисляются" style="rounded=30;whiteSpace=wrap;html=1;arcSize=30;fillColor=#f8cecc;strokeColor=#b85450;" parent="1" vertex="1">
          <mxGeometry x="230" y="170" width="200" height="60" as="geometry" />
        </mxCell>
        <mxCell id="0UEoLD_UqMc9a8rCgnll-8" value="&lt;span style=&quot;&quot;&gt;место, занятое в финальном заплыве&lt;/span&gt;" style="rounded=0;whiteSpace=wrap;html=1;" parent="1" vertex="1">
          <mxGeometry x="330" y="-30" width="120" height="60" as="geometry" />
        </mxCell>
        <mxCell id="0UEoLD_UqMc9a8rCgnll-10" style="edgeStyle=orthogonalEdgeStyle;rounded=0;orthogonalLoop=1;jettySize=auto;html=1;entryX=0.5;entryY=0;entryDx=0;entryDy=0;" parent="1" source="0UEoLD_UqMc9a8rCgnll-9" target="0UEoLD_UqMc9a8rCgnll-1" edge="1">
          <mxGeometry relative="1" as="geometry" />
        </mxCell>
        <mxCell id="0UEoLD_UqMc9a8rCgnll-9" value="Начало" style="rounded=1;whiteSpace=wrap;html=1;" parent="1" vertex="1">
          <mxGeometry x="30" y="100" width="120" height="30" as="geometry" />
        </mxCell>
        <mxCell id="0UEoLD_UqMc9a8rCgnll-11" value="&lt;meta charset=&quot;utf-8&quot;&gt;&lt;span style=&quot;color: rgb(0, 0, 0); font-family: Helvetica; font-size: 12px; font-style: normal; font-variant-ligatures: normal; font-variant-caps: normal; font-weight: 400; letter-spacing: normal; orphans: 2; text-align: center; text-indent: 0px; text-transform: none; widows: 2; word-spacing: 0px; -webkit-text-stroke-width: 0px; background-color: rgb(248, 249, 250); text-decoration-thickness: initial; text-decoration-style: initial; text-decoration-color: initial;&quot;&gt;Открытый чемпионат&amp;nbsp;&lt;/span&gt;&lt;span style=&quot;color: rgb(0, 0, 0); font-family: Helvetica; font-size: 12px; font-style: normal; font-variant-ligatures: normal; font-variant-caps: normal; font-weight: 400; letter-spacing: normal; orphans: 2; text-align: center; text-indent: 0px; text-transform: none; widows: 2; word-spacing: 0px; -webkit-text-stroke-width: 0px; background-color: rgb(248, 249, 250); text-decoration-thickness: initial; text-decoration-style: initial; text-decoration-color: initial; float: none; display: inline !important;&quot;&gt;РБ&lt;/span&gt;&lt;br style=&quot;color: rgb(0, 0, 0); font-family: Helvetica; font-size: 12px; font-style: normal; font-variant-ligatures: normal; font-variant-caps: normal; font-weight: 400; letter-spacing: normal; orphans: 2; text-align: center; text-indent: 0px; text-transform: none; widows: 2; word-spacing: 0px; -webkit-text-stroke-width: 0px; background-color: rgb(248, 249, 250); text-decoration-thickness: initial; text-decoration-style: initial; text-decoration-color: initial;&quot;&gt;&lt;span style=&quot;color: rgb(0, 0, 0); font-family: Helvetica; font-size: 12px; font-style: normal; font-variant-ligatures: normal; font-variant-caps: normal; font-weight: 400; letter-spacing: normal; orphans: 2; text-align: center; text-indent: 0px; text-transform: none; widows: 2; word-spacing: 0px; -webkit-text-stroke-width: 0px; background-color: rgb(248, 249, 250); text-decoration-thickness: initial; text-decoration-style: initial; text-decoration-color: initial;&quot;&gt;Кубок РБ&lt;br&gt;Открытое первенство РБ&lt;br&gt;Олимпийские дни молодежи РБ&lt;/span&gt;" style="rounded=0;whiteSpace=wrap;html=1;" parent="1" vertex="1">
          <mxGeometry x="230" y="280" width="490" height="60" as="geometry" />
        </mxCell>
        <mxCell id="0UEoLD_UqMc9a8rCgnll-13" value="1 место = 40&lt;br&gt;2 место = 35&lt;br&gt;3 место = 30&lt;br&gt;4 место = 28" style="rounded=0;whiteSpace=wrap;html=1;verticalAlign=middle;" parent="1" vertex="1">
          <mxGeometry x="240" y="350" width="110" height="60" as="geometry" />
        </mxCell>
        <mxCell id="0UEoLD_UqMc9a8rCgnll-14" value="&lt;span style=&quot;&quot;&gt;5 место = 26&lt;/span&gt;&lt;br style=&quot;&quot;&gt;&lt;span style=&quot;&quot;&gt;6 место = 24&lt;/span&gt;&lt;br style=&quot;&quot;&gt;&lt;span style=&quot;&quot;&gt;7 место = 22&lt;/span&gt;&lt;br style=&quot;&quot;&gt;&lt;span style=&quot;&quot;&gt;8 место = 20&lt;/span&gt;" style="rounded=0;whiteSpace=wrap;html=1;verticalAlign=middle;" parent="1" vertex="1">
          <mxGeometry x="360" y="350" width="110" height="60" as="geometry" />
        </mxCell>
        <mxCell id="0UEoLD_UqMc9a8rCgnll-15" value="&lt;span style=&quot;&quot;&gt;9 место = 18&lt;/span&gt;&lt;br style=&quot;&quot;&gt;&lt;span style=&quot;&quot;&gt;10 место = 17&lt;/span&gt;&lt;br style=&quot;&quot;&gt;&lt;span style=&quot;&quot;&gt;11 место = 16&lt;/span&gt;&lt;br style=&quot;&quot;&gt;&lt;span style=&quot;&quot;&gt;12 место = 15&lt;/span&gt;" style="rounded=0;whiteSpace=wrap;html=1;verticalAlign=middle;" parent="1" vertex="1">
          <mxGeometry x="480" y="350" width="110" height="60" as="geometry" />
        </mxCell>
        <mxCell id="0UEoLD_UqMc9a8rCgnll-16" value="&lt;span style=&quot;&quot;&gt;13 место = 14&lt;/span&gt;&lt;br style=&quot;&quot;&gt;&lt;span style=&quot;&quot;&gt;14 место = 13&lt;/span&gt;" style="rounded=0;whiteSpace=wrap;html=1;verticalAlign=middle;" parent="1" vertex="1">
          <mxGeometry x="600" y="350" width="110" height="60" as="geometry" />
        </mxCell>
        <mxCell id="0UEoLD_UqMc9a8rCgnll-17" value="&lt;span style=&quot;&quot;&gt;Применить коэффициент - 2&lt;br&gt;&lt;/span&gt;" style="rounded=0;whiteSpace=wrap;html=1;" parent="1" vertex="1">
          <mxGeometry x="480" y="440" width="230" height="60" as="geometry" />
        </mxCell>
        <mxCell id="0UEoLD_UqMc9a8rCgnll-19" value="да" style="edgeStyle=orthogonalEdgeStyle;rounded=0;orthogonalLoop=1;jettySize=auto;html=1;entryX=0;entryY=0.5;entryDx=0;entryDy=0;" parent="1" source="0UEoLD_UqMc9a8rCgnll-18" target="0UEoLD_UqMc9a8rCgnll-17" edge="1">
          <mxGeometry relative="1" as="geometry" />
        </mxCell>
        <mxCell id="0UEoLD_UqMc9a8rCgnll-18" value="эстафетное плавание?" style="rhombus;whiteSpace=wrap;html=1;" parent="1" vertex="1">
          <mxGeometry x="240" y="430" width="120" height="80" as="geometry" />
        </mxCell>
        <mxCell id="0UEoLD_UqMc9a8rCgnll-22" value="рекорд РБ = занятое место + 50&lt;br&gt;юношеский рекорд РБ = занятое место + 30&lt;br&gt;норматив МСМК = занятое место + 50&lt;br&gt;норматив МС = занятое место + 20" style="rounded=0;whiteSpace=wrap;html=1;verticalAlign=middle;align=center;" parent="1" vertex="1">
          <mxGeometry x="230" y="555" width="260" height="60" as="geometry" />
        </mxCell>
        <mxCell id="0UEoLD_UqMc9a8rCgnll-26" value="Открытый чемпионат&amp;nbsp;РБ&lt;br&gt;Открытый кубок РБ&lt;br&gt;Открытое первенство РБ&lt;br&gt;Олимпийские дни молодежи РБ" style="rounded=0;whiteSpace=wrap;html=1;" parent="1" vertex="1">
          <mxGeometry x="30" y="-230" width="770" height="70" as="geometry" />
        </mxCell>
        <mxCell id="0UEoLD_UqMc9a8rCgnll-27" value="Первенство РБ в программе соревнований&amp;nbsp;&quot;Весёлый Дельфин&quot;&lt;br&gt;Спартакиада детско-юношеских спортивных школ&lt;br&gt;Открытый чемпионат РБ на короткой воде" style="rounded=0;whiteSpace=wrap;html=1;" parent="1" vertex="1">
          <mxGeometry x="30" y="-150" width="770" height="60" as="geometry" />
        </mxCell>
        <mxCell id="0UEoLD_UqMc9a8rCgnll-28" value="РЕСПУБЛИКАНСКИЕ СОРЕВНОВАНИЯ" style="rounded=0;whiteSpace=wrap;html=1;labelBackgroundColor=none;fillColor=#ffe6cc;strokeColor=#d79b00;" parent="1" vertex="1">
          <mxGeometry x="30" y="-280" width="770" height="40" as="geometry" />
        </mxCell>
        <mxCell id="0UEoLD_UqMc9a8rCgnll-30" style="edgeStyle=orthogonalEdgeStyle;rounded=0;orthogonalLoop=1;jettySize=auto;html=1;entryX=0;entryY=0.5;entryDx=0;entryDy=0;" parent="1" source="0UEoLD_UqMc9a8rCgnll-29" target="0UEoLD_UqMc9a8rCgnll-22" edge="1">
          <mxGeometry relative="1" as="geometry" />
        </mxCell>
        <mxCell id="0UEoLD_UqMc9a8rCgnll-29" value="Начислить дополнительные очки" style="rounded=0;whiteSpace=wrap;html=1;verticalAlign=middle;align=center;" parent="1" vertex="1">
          <mxGeometry x="10" y="555" width="160" height="60" as="geometry" />
        </mxCell>
        <mxCell id="0UEoLD_UqMc9a8rCgnll-32" style="edgeStyle=orthogonalEdgeStyle;rounded=0;orthogonalLoop=1;jettySize=auto;html=1;entryX=0;entryY=0.5;entryDx=0;entryDy=0;" parent="1" source="0UEoLD_UqMc9a8rCgnll-31" target="0UEoLD_UqMc9a8rCgnll-11" edge="1">
          <mxGeometry relative="1" as="geometry" />
        </mxCell>
        <mxCell id="0UEoLD_UqMc9a8rCgnll-33" style="edgeStyle=orthogonalEdgeStyle;rounded=0;orthogonalLoop=1;jettySize=auto;html=1;entryX=0.5;entryY=0;entryDx=0;entryDy=0;" parent="1" source="0UEoLD_UqMc9a8rCgnll-31" target="0UEoLD_UqMc9a8rCgnll-29" edge="1">
          <mxGeometry relative="1" as="geometry" />
        </mxCell>
        <mxCell id="0UEoLD_UqMc9a8rCgnll-31" value="Начислить основные очки" style="rounded=0;whiteSpace=wrap;html=1;verticalAlign=middle;align=center;" parent="1" vertex="1">
          <mxGeometry x="10" y="280" width="160" height="60" as="geometry" />
        </mxCell>
        <mxCell id="0UEoLD_UqMc9a8rCgnll-36" value="за рекорд РБ" style="rounded=0;whiteSpace=wrap;html=1;verticalAlign=middle;align=center;" parent="1" vertex="1">
          <mxGeometry x="480" y="640" width="200" height="30" as="geometry" />
        </mxCell>
        <mxCell id="0UEoLD_UqMc9a8rCgnll-37" value="Открытый чемпионат&amp;nbsp;РБ&lt;br&gt;Кубок РБ" style="rounded=0;whiteSpace=wrap;html=1;verticalAlign=middle;align=center;" parent="1" vertex="1">
          <mxGeometry x="230" y="640" width="210" height="30" as="geometry" />
        </mxCell>
        <mxCell id="0UEoLD_UqMc9a8rCgnll-38" value="за юношеский рекорд РБ" style="rounded=0;whiteSpace=wrap;html=1;verticalAlign=middle;align=center;" parent="1" vertex="1">
          <mxGeometry x="480" y="680" width="200" height="30" as="geometry" />
        </mxCell>
        <mxCell id="0UEoLD_UqMc9a8rCgnll-39" value="за норматив МСМК" style="rounded=0;whiteSpace=wrap;html=1;verticalAlign=middle;align=center;" parent="1" vertex="1">
          <mxGeometry x="480" y="790" width="200" height="30" as="geometry" />
        </mxCell>
        <mxCell id="0UEoLD_UqMc9a8rCgnll-40" value="за норматив МС" style="rounded=0;whiteSpace=wrap;html=1;verticalAlign=middle;align=center;" parent="1" vertex="1">
          <mxGeometry x="630" y="720" width="140" height="30" as="geometry" />
        </mxCell>
        <mxCell id="0UEoLD_UqMc9a8rCgnll-41" value="&lt;span style=&quot;&quot;&gt;Открытое первенство РБ&lt;br&gt;Олимпийские дни молодежи РБ&lt;/span&gt;" style="rounded=0;whiteSpace=wrap;html=1;verticalAlign=middle;align=center;" parent="1" vertex="1">
          <mxGeometry x="230" y="680" width="210" height="30" as="geometry" />
        </mxCell>
        <mxCell id="avZdRZ_vdqqQ64pIBQn--3" value="юниорские и юношеские соревнования" style="rounded=0;whiteSpace=wrap;html=1;verticalAlign=middle;align=center;" parent="1" vertex="1">
          <mxGeometry x="230" y="870" width="210" height="40" as="geometry" />
        </mxCell>
        <mxCell id="avZdRZ_vdqqQ64pIBQn--4" value="при установлении рекорда РБ очки за юношеские рекорды не начисляются&amp;nbsp;" style="rounded=0;whiteSpace=wrap;html=1;verticalAlign=middle;align=center;" parent="1" vertex="1">
          <mxGeometry x="480" y="870" width="200" height="40" as="geometry" />
        </mxCell>
        <mxCell id="avZdRZ_vdqqQ64pIBQn--5" value="Открытое первенство РБ&lt;br&gt;Олимпийские дни молодежи РБ&lt;br&gt;Спартакиада детско-юношеских спортивных школ&lt;br&gt;Первенство РБ в программе соревнований&amp;nbsp;&quot;Весёлый Дельфин&quot;" style="rounded=0;whiteSpace=wrap;html=1;verticalAlign=middle;align=center;" parent="1" vertex="1">
          <mxGeometry x="230" y="720" width="380" height="60" as="geometry" />
        </mxCell>
        <mxCell id="avZdRZ_vdqqQ64pIBQn--6" value="за рекорд РБ" style="rounded=0;whiteSpace=wrap;html=1;verticalAlign=middle;align=center;" parent="1" vertex="1">
          <mxGeometry x="480" y="830" width="200" height="30" as="geometry" />
        </mxCell>
        <mxCell id="avZdRZ_vdqqQ64pIBQn--7" value="все соревнования" style="rounded=0;whiteSpace=wrap;html=1;verticalAlign=middle;align=center;" parent="1" vertex="1">
          <mxGeometry x="230" y="790" width="210" height="30" as="geometry" />
        </mxCell>
        <mxCell id="avZdRZ_vdqqQ64pIBQn--8" value="все соревнования" style="rounded=0;whiteSpace=wrap;html=1;verticalAlign=middle;align=center;" parent="1" vertex="1">
          <mxGeometry x="230" y="830" width="210" height="30" as="geometry" />
        </mxCell>
        <mxCell id="pMIyGP8yNN3Yacg1J5Pv-1" value="Открытое первенство РБ" style="rounded=0;whiteSpace=wrap;html=1;" vertex="1" parent="1">
          <mxGeometry x="50" y="-1100" width="190" height="50" as="geometry" />
        </mxCell>
        <mxCell id="pMIyGP8yNN3Yacg1J5Pv-3" value="Олимпийские дни молодежи РБ" style="rounded=0;whiteSpace=wrap;html=1;" vertex="1" parent="1">
          <mxGeometry x="50" y="-1050" width="190" height="50" as="geometry" />
        </mxCell>
        <mxCell id="pMIyGP8yNN3Yacg1J5Pv-4" value="Открытый чемпионат&amp;nbsp;РБ" style="rounded=0;whiteSpace=wrap;html=1;" vertex="1" parent="1">
          <mxGeometry x="50" y="-1000" width="190" height="50" as="geometry" />
        </mxCell>
        <mxCell id="pMIyGP8yNN3Yacg1J5Pv-5" value="Открытый кубок РБ" style="rounded=0;whiteSpace=wrap;html=1;" vertex="1" parent="1">
          <mxGeometry x="50" y="-850" width="190" height="50" as="geometry" />
        </mxCell>
        <mxCell id="pMIyGP8yNN3Yacg1J5Pv-6" value="Первенство РБ в программе соревнований&amp;nbsp;&quot;Весёлый Дельфин&quot;" style="rounded=0;whiteSpace=wrap;html=1;" vertex="1" parent="1">
          <mxGeometry x="50" y="-950" width="190" height="50" as="geometry" />
        </mxCell>
        <mxCell id="pMIyGP8yNN3Yacg1J5Pv-7" value="Спартакиада детско-юношеских спортивных школ" style="rounded=0;whiteSpace=wrap;html=1;" vertex="1" parent="1">
          <mxGeometry x="50" y="-900" width="190" height="50" as="geometry" />
        </mxCell>
        <mxCell id="pMIyGP8yNN3Yacg1J5Pv-8" value="Открытый чемпионат РБ на короткой воде (25 м)" style="rounded=0;whiteSpace=wrap;html=1;" vertex="1" parent="1">
          <mxGeometry x="50" y="-800" width="190" height="50" as="geometry" />
        </mxCell>
        <mxCell id="pMIyGP8yNN3Yacg1J5Pv-9" value="08.02.2022" style="rounded=0;whiteSpace=wrap;html=1;" vertex="1" parent="1">
          <mxGeometry x="430" y="-1100" width="80" height="50" as="geometry" />
        </mxCell>
        <mxCell id="pMIyGP8yNN3Yacg1J5Pv-10" value="12.02.2022" style="rounded=0;whiteSpace=wrap;html=1;" vertex="1" parent="1">
          <mxGeometry x="510" y="-1100" width="80" height="50" as="geometry" />
        </mxCell>
        <mxCell id="pMIyGP8yNN3Yacg1J5Pv-11" value="5 дней" style="rounded=0;whiteSpace=wrap;html=1;" vertex="1" parent="1">
          <mxGeometry x="590" y="-1100" width="80" height="50" as="geometry" />
        </mxCell>
        <mxCell id="pMIyGP8yNN3Yacg1J5Pv-12" value="г. Брест" style="rounded=0;whiteSpace=wrap;html=1;" vertex="1" parent="1">
          <mxGeometry x="670" y="-1100" width="80" height="50" as="geometry" />
        </mxCell>
        <mxCell id="pMIyGP8yNN3Yacg1J5Pv-13" value="15.03.2022" style="rounded=0;whiteSpace=wrap;html=1;" vertex="1" parent="1">
          <mxGeometry x="430" y="-1050" width="80" height="50" as="geometry" />
        </mxCell>
        <mxCell id="pMIyGP8yNN3Yacg1J5Pv-14" value="19.03.2022" style="rounded=0;whiteSpace=wrap;html=1;" vertex="1" parent="1">
          <mxGeometry x="510" y="-1050" width="80" height="50" as="geometry" />
        </mxCell>
        <mxCell id="pMIyGP8yNN3Yacg1J5Pv-15" value="5 дней" style="rounded=0;whiteSpace=wrap;html=1;" vertex="1" parent="1">
          <mxGeometry x="590" y="-1050" width="80" height="50" as="geometry" />
        </mxCell>
        <mxCell id="pMIyGP8yNN3Yacg1J5Pv-16" value="г. Брест&lt;br&gt;г. Пинск" style="rounded=0;whiteSpace=wrap;html=1;" vertex="1" parent="1">
          <mxGeometry x="670" y="-1050" width="80" height="50" as="geometry" />
        </mxCell>
        <mxCell id="pMIyGP8yNN3Yacg1J5Pv-17" value="04.04.2022" style="rounded=0;whiteSpace=wrap;html=1;" vertex="1" parent="1">
          <mxGeometry x="430" y="-1000" width="80" height="50" as="geometry" />
        </mxCell>
        <mxCell id="pMIyGP8yNN3Yacg1J5Pv-18" value="09.04.2022" style="rounded=0;whiteSpace=wrap;html=1;" vertex="1" parent="1">
          <mxGeometry x="510" y="-1000" width="80" height="50" as="geometry" />
        </mxCell>
        <mxCell id="pMIyGP8yNN3Yacg1J5Pv-19" value="6 дней" style="rounded=0;whiteSpace=wrap;html=1;" vertex="1" parent="1">
          <mxGeometry x="590" y="-1000" width="80" height="50" as="geometry" />
        </mxCell>
        <mxCell id="pMIyGP8yNN3Yacg1J5Pv-20" value="г. Брест" style="rounded=0;whiteSpace=wrap;html=1;" vertex="1" parent="1">
          <mxGeometry x="670" y="-1000" width="80" height="50" as="geometry" />
        </mxCell>
        <mxCell id="pMIyGP8yNN3Yacg1J5Pv-21" value="31.05.2022" style="rounded=0;whiteSpace=wrap;html=1;" vertex="1" parent="1">
          <mxGeometry x="430" y="-950" width="80" height="50" as="geometry" />
        </mxCell>
        <mxCell id="pMIyGP8yNN3Yacg1J5Pv-22" value="03.06.2022" style="rounded=0;whiteSpace=wrap;html=1;" vertex="1" parent="1">
          <mxGeometry x="510" y="-950" width="80" height="50" as="geometry" />
        </mxCell>
        <mxCell id="pMIyGP8yNN3Yacg1J5Pv-23" value="4 дня" style="rounded=0;whiteSpace=wrap;html=1;" vertex="1" parent="1">
          <mxGeometry x="590" y="-950" width="80" height="50" as="geometry" />
        </mxCell>
        <mxCell id="pMIyGP8yNN3Yacg1J5Pv-24" value="г. Могилев&lt;br&gt;г. Гродно&lt;br&gt;" style="rounded=0;whiteSpace=wrap;html=1;" vertex="1" parent="1">
          <mxGeometry x="670" y="-950" width="80" height="50" as="geometry" />
        </mxCell>
        <mxCell id="pMIyGP8yNN3Yacg1J5Pv-25" value="14.06.2022" style="rounded=0;whiteSpace=wrap;html=1;" vertex="1" parent="1">
          <mxGeometry x="430" y="-900" width="80" height="50" as="geometry" />
        </mxCell>
        <mxCell id="pMIyGP8yNN3Yacg1J5Pv-26" value="17.06.2022" style="rounded=0;whiteSpace=wrap;html=1;" vertex="1" parent="1">
          <mxGeometry x="510" y="-900" width="80" height="50" as="geometry" />
        </mxCell>
        <mxCell id="pMIyGP8yNN3Yacg1J5Pv-27" value="4 дня" style="rounded=0;whiteSpace=wrap;html=1;" vertex="1" parent="1">
          <mxGeometry x="590" y="-900" width="80" height="50" as="geometry" />
        </mxCell>
        <mxCell id="pMIyGP8yNN3Yacg1J5Pv-28" value="г. Минск" style="rounded=0;whiteSpace=wrap;html=1;" vertex="1" parent="1">
          <mxGeometry x="670" y="-900" width="80" height="50" as="geometry" />
        </mxCell>
        <mxCell id="pMIyGP8yNN3Yacg1J5Pv-29" value="28.06.2022" style="rounded=0;whiteSpace=wrap;html=1;" vertex="1" parent="1">
          <mxGeometry x="430" y="-850" width="80" height="50" as="geometry" />
        </mxCell>
        <mxCell id="pMIyGP8yNN3Yacg1J5Pv-30" value="02.07.2022" style="rounded=0;whiteSpace=wrap;html=1;" vertex="1" parent="1">
          <mxGeometry x="510" y="-850" width="80" height="50" as="geometry" />
        </mxCell>
        <mxCell id="pMIyGP8yNN3Yacg1J5Pv-31" value="5 дней" style="rounded=0;whiteSpace=wrap;html=1;" vertex="1" parent="1">
          <mxGeometry x="590" y="-850" width="80" height="50" as="geometry" />
        </mxCell>
        <mxCell id="pMIyGP8yNN3Yacg1J5Pv-32" value="г. Брест" style="rounded=0;whiteSpace=wrap;html=1;" vertex="1" parent="1">
          <mxGeometry x="670" y="-850" width="80" height="50" as="geometry" />
        </mxCell>
        <mxCell id="pMIyGP8yNN3Yacg1J5Pv-33" value="08.11.2022" style="rounded=0;whiteSpace=wrap;html=1;" vertex="1" parent="1">
          <mxGeometry x="430" y="-800" width="80" height="50" as="geometry" />
        </mxCell>
        <mxCell id="pMIyGP8yNN3Yacg1J5Pv-34" value="12.11.2022" style="rounded=0;whiteSpace=wrap;html=1;" vertex="1" parent="1">
          <mxGeometry x="510" y="-800" width="80" height="50" as="geometry" />
        </mxCell>
        <mxCell id="pMIyGP8yNN3Yacg1J5Pv-35" value="5 дней" style="rounded=0;whiteSpace=wrap;html=1;" vertex="1" parent="1">
          <mxGeometry x="590" y="-800" width="80" height="50" as="geometry" />
        </mxCell>
        <mxCell id="pMIyGP8yNN3Yacg1J5Pv-36" value="г. Брест" style="rounded=0;whiteSpace=wrap;html=1;" vertex="1" parent="1">
          <mxGeometry x="670" y="-800" width="80" height="50" as="geometry" />
        </mxCell>
        <mxCell id="pMIyGP8yNN3Yacg1J5Pv-37" value="юниоры 2004 - 2007 гг.р.&lt;br&gt;юниорки 2005 - 2008 гг.р." style="rounded=0;whiteSpace=wrap;html=1;" vertex="1" parent="1">
          <mxGeometry x="240" y="-1100" width="190" height="50" as="geometry" />
        </mxCell>
        <mxCell id="pMIyGP8yNN3Yacg1J5Pv-38" value="юниоры 2006 - 2007 гг.р.&lt;br&gt;юниорки 2007 - 2008 гг.р." style="rounded=0;whiteSpace=wrap;html=1;" vertex="1" parent="1">
          <mxGeometry x="240" y="-1050" width="190" height="50" as="geometry" />
        </mxCell>
        <mxCell id="pMIyGP8yNN3Yacg1J5Pv-39" value="мужчины&lt;br&gt;женщины" style="rounded=0;whiteSpace=wrap;html=1;" vertex="1" parent="1">
          <mxGeometry x="240" y="-1000" width="190" height="50" as="geometry" />
        </mxCell>
        <mxCell id="pMIyGP8yNN3Yacg1J5Pv-40" value="юниоры 2008 гг.р. и моложе&lt;br&gt;юниорки 2010 гг.р. и моложе" style="rounded=0;whiteSpace=wrap;html=1;" vertex="1" parent="1">
          <mxGeometry x="240" y="-950" width="190" height="50" as="geometry" />
        </mxCell>
        <mxCell id="pMIyGP8yNN3Yacg1J5Pv-41" value="юниоры 2007 - 2008 гг.р.&lt;br&gt;юниорки 2009 - 2010 гг.р." style="rounded=0;whiteSpace=wrap;html=1;" vertex="1" parent="1">
          <mxGeometry x="240" y="-900" width="190" height="50" as="geometry" />
        </mxCell>
        <mxCell id="pMIyGP8yNN3Yacg1J5Pv-42" value="мужчины&lt;br&gt;женщины" style="rounded=0;whiteSpace=wrap;html=1;" vertex="1" parent="1">
          <mxGeometry x="240" y="-850" width="190" height="50" as="geometry" />
        </mxCell>
        <mxCell id="pMIyGP8yNN3Yacg1J5Pv-43" value="мужчины&lt;br&gt;женщины" style="rounded=0;whiteSpace=wrap;html=1;" vertex="1" parent="1">
          <mxGeometry x="240" y="-800" width="190" height="50" as="geometry" />
        </mxCell>
        <mxCell id="pMIyGP8yNN3Yacg1J5Pv-44" value="Наименование спортивного мероприятия" style="rounded=0;whiteSpace=wrap;html=1;fillColor=#D4E1F5;" vertex="1" parent="1">
          <mxGeometry x="50" y="-1160" width="190" height="60" as="geometry" />
        </mxCell>
        <mxCell id="pMIyGP8yNN3Yacg1J5Pv-45" value="Дата начала" style="rounded=0;whiteSpace=wrap;html=1;fillColor=#D4E1F5;" vertex="1" parent="1">
          <mxGeometry x="430" y="-1140" width="80" height="40" as="geometry" />
        </mxCell>
        <mxCell id="pMIyGP8yNN3Yacg1J5Pv-46" value="Дата окончания" style="rounded=0;whiteSpace=wrap;html=1;fillColor=#D4E1F5;" vertex="1" parent="1">
          <mxGeometry x="510" y="-1140" width="80" height="40" as="geometry" />
        </mxCell>
        <mxCell id="pMIyGP8yNN3Yacg1J5Pv-47" value="Продолжи-тельность,&lt;br&gt;дней" style="rounded=0;whiteSpace=wrap;html=1;fillColor=#D4E1F5;" vertex="1" parent="1">
          <mxGeometry x="590" y="-1140" width="80" height="40" as="geometry" />
        </mxCell>
        <mxCell id="pMIyGP8yNN3Yacg1J5Pv-48" value="Место проведения" style="rounded=0;whiteSpace=wrap;html=1;fillColor=#D4E1F5;" vertex="1" parent="1">
          <mxGeometry x="670" y="-1160" width="80" height="60" as="geometry" />
        </mxCell>
        <mxCell id="pMIyGP8yNN3Yacg1J5Pv-49" value="Участники" style="rounded=0;whiteSpace=wrap;html=1;fillColor=#D4E1F5;" vertex="1" parent="1">
          <mxGeometry x="240" y="-1160" width="190" height="60" as="geometry" />
        </mxCell>
        <mxCell id="pMIyGP8yNN3Yacg1J5Pv-50" value="Сроки проведения" style="rounded=0;whiteSpace=wrap;html=1;fillColor=#D4E1F5;" vertex="1" parent="1">
          <mxGeometry x="430" y="-1160" width="240" height="20" as="geometry" />
        </mxCell>
        <mxCell id="pMIyGP8yNN3Yacg1J5Pv-51" value="1" style="rounded=0;whiteSpace=wrap;html=1;" vertex="1" parent="1">
          <mxGeometry x="20" y="-1100" width="30" height="50" as="geometry" />
        </mxCell>
        <mxCell id="pMIyGP8yNN3Yacg1J5Pv-52" value="2" style="rounded=0;whiteSpace=wrap;html=1;" vertex="1" parent="1">
          <mxGeometry x="20" y="-1050" width="30" height="50" as="geometry" />
        </mxCell>
        <mxCell id="pMIyGP8yNN3Yacg1J5Pv-53" value="3" style="rounded=0;whiteSpace=wrap;html=1;" vertex="1" parent="1">
          <mxGeometry x="20" y="-1000" width="30" height="50" as="geometry" />
        </mxCell>
        <mxCell id="pMIyGP8yNN3Yacg1J5Pv-54" value="6" style="rounded=0;whiteSpace=wrap;html=1;" vertex="1" parent="1">
          <mxGeometry x="20" y="-850" width="30" height="50" as="geometry" />
        </mxCell>
        <mxCell id="pMIyGP8yNN3Yacg1J5Pv-55" value="4" style="rounded=0;whiteSpace=wrap;html=1;" vertex="1" parent="1">
          <mxGeometry x="20" y="-950" width="30" height="50" as="geometry" />
        </mxCell>
        <mxCell id="pMIyGP8yNN3Yacg1J5Pv-56" value="5" style="rounded=0;whiteSpace=wrap;html=1;" vertex="1" parent="1">
          <mxGeometry x="20" y="-900" width="30" height="50" as="geometry" />
        </mxCell>
        <mxCell id="pMIyGP8yNN3Yacg1J5Pv-57" value="7" style="rounded=0;whiteSpace=wrap;html=1;" vertex="1" parent="1">
          <mxGeometry x="20" y="-800" width="30" height="50" as="geometry" />
        </mxCell>
        <mxCell id="pMIyGP8yNN3Yacg1J5Pv-58" value="№" style="rounded=0;whiteSpace=wrap;html=1;fillColor=#D4E1F5;" vertex="1" parent="1">
          <mxGeometry x="20" y="-1160" width="30" height="60" as="geometry" />
        </mxCell>
      </root>
    </mxGraphModel>
  </diagram>
  <diagram id="TI1xsmPVqGKV5VYeGKD1" name="Городские">
    <mxGraphModel dx="1038" dy="481" grid="1" gridSize="10" guides="1" tooltips="1" connect="1" arrows="1" fold="1" page="1" pageScale="1" pageWidth="827" pageHeight="1169" math="0" shadow="0">
      <root>
        <mxCell id="0" />
        <mxCell id="1" parent="0" />
      </root>
    </mxGraphModel>
  </diagram>
</mxfile>
